# AST/ASF file generated using VICON BodyLanguage
# -----------------------------------------------
:version 1.10
:name VICON
:units
  mass 1.0
  length 0.45
  angle deg
:documentation
   .ast/.asf automatically generated from VICON data using
   VICON BodyBuilder and BodyLanguage model FoxedUp or BRILLIANT.MOD
:root
   order TX TY TZ RX RY RZ
   axis XYZ
   position 0 0 0  
   orientation 0 -0 0 
:bonedata
  begin
     id 1 
     name lhipjoint
     direction 0.432694 -0.693742 0.575759 
     length 2.19277 
     axis 0 -0 0  XYZ
  end
  begin
     id 2 
     name lfemur
     direction 0.34202 -0.939693 0  
     length 6.69022  
     axis 0 -0 20  XYZ
    dof rx ry rz
    limits (-160.0 20.0)
           (-70.0 70.0)
           (-60.0 70.0)
  end
  begin
     id 3 
     name ltibia
     direction 0.34202 -0.939693 0   
     length 6.50337   
     axis 0 -0 20   XYZ
    dof rx
    limits (-10.0 170.0)
  end
  begin
     id 4 
     name lfoot
     direction 0.158999 -0.435969 0.885805   
     length 2.70564   
     axis -90 -1.13533e-015 20   XYZ
    dof rx rz
    limits (-45.0 90.0)
           (-70.0 20.0)
  end
  begin
     id 5 
     name ltoes
     direction -0.00592919 0.00964381 0.999936   
     length 1.29929   
     axis -90 -1.13533e-015 20   XYZ
    dof rx
    limits (-90.0 20.0)
  end
  begin
     id 6 
     name rhipjoint
     direction -0.414359 -0.700339 0.581234   
     length 2.17212  
     axis 0 -0 0  XYZ 
  end
  begin
     id 7 
     name rfemur
     direction -0.34202 -0.939693 0   
     length 7.17659   
     axis 0 -0 -20   XYZ
    dof rx ry rz
    limits (-160.0 20.0)
           (-70.0 70.0)
           (-70.0 60.0)
  end
  begin
     id 8 
     name rtibia
     direction -0.34202 -0.939693 0   
     length 6.36669   
     axis 0 -0 -20   XYZ
    dof rx
    limits (-10.0 170.0)
 end
 begin
     id 9 
     name rfoot
     direction -0.137064 -0.37658 0.916188   
     length 2.22351  
     axis -90 1.13533e-015 -20   XYZ
    dof rx rz
    limits (-45.0 90.0)
           (-20.0 70.0)
  end
  begin
     id 10 
     name rtoes
     direction -0.000784077 -0.00289101 0.999996   
     length 1.09522   
     axis -90 1.13533e-015 -20   XYZ
    dof rx
    limits (-90.0 20.0)
  end
  begin
     id 11 
     name lowerback
     direction -0.0176242 0.984912 -0.172157   
     length 1.65301   
     axis 0 -0 0   XYZ
    dof rx ry rz
    limits (-20.0 45.0)
           (-30.0 30.0)
           (-30.0 30.0)
  end
  begin
     id 12 
     name upperback
     direction -0.00218128 0.998776 -0.0494072   
     length 1.67776   
     axis 0 -0 0   XYZ
    dof rx ry rz
    limits (-20.0 45.0)
           (-30.0 30.0)
           (-30.0 30.0)
  end
  begin
     id 13 
     name thorax
     direction 0.00544186 0.999658 0.0255711   
     length 1.72293   
     axis 0 -0 0   XYZ
    dof rx ry rz
    limits (-20.0 45.0)
           (-30.0 30.0)
           (-30.0 30.0)
  end
  begin
     id 14 
     name lowerneck
     direction -0.105325 0.983841 0.144785   
     length 2.14226   
     axis 0 -0 0   XYZ
    dof rx ry rz
    limits (-20.0 45.0)
           (-30.0 30.0)
           (-30.0 30.0)
  end
  begin
     id 15 
     name upperneck
     direction 0.0547957 0.988053 -0.144041   
     length 2.17508   
     axis 0 -0 0   XYZ
    dof rx ry rz
    limits (-20.0 45.0)
           (-30.0 30.0)
           (-30.0 30.0)
  end
  begin
     id 16
     name head
     direction 0.0247488 0.997534 -0.0656813  
     length 2.20048  
     axis 0 -0 0   XYZ
    dof rx ry rz
    limits (-20.0 45.0)
           (-30.0 30.0)
           (-30.0 30.0)
  end
  begin
     id 17 
     name lclavicle
     direction 0.820559 0.567247 -0.0701026  
     length 4.09615  
     axis 0 -0 0   XYZ
    dof ry rz
    limits (-20.0 10.0)
           (0.0 20.0)
  end
  begin
     id 18 
     name lhumerus
     direction 0.999977 -0.0067566 -9.96392e-005   
     length 4.59333   
     axis -180 -30 -90   XYZ
    dof rx ry rz
    limits (-60.0 90.0)
           (-90.0 90.0)
           (-90.0 90.0)
  end
  begin
     id 19
     name lradius
     direction 1 -4.48982e-011 -2.53425e-027   
     length 2.81151   
     axis -180 -30 -90   XYZ
    dof rx
    limits (-10.0 170.0)
  end
  begin
     id 20
     name lwrist
     direction 1 -4.48939e-011 -7.39254e-028   
     length 1.40576   
     axis 2.56395e-016 90 90   XYZ
    dof ry
    limits (-180.0 0.0)
 end
  begin
     id 21 
     name lhand
     direction 1 -4.48939e-011 -1.47851e-027   
     length 0.895651   
     axis 9.43423e-016 90 90   XYZ
    dof rx rz
    limits (-90.0 90.0)
           (-45.0 45.0)
  end
  begin
     id 22 
     name lfingers
     direction 1 -4.48978e-011 -2.95702e-027   
     length 0.722097   
     axis 1.88685e-015 90 90   XYZ
    dof rx
    limits (0.0 90.0)
  end
  begin
     id 23
     name lthumb
     direction 0.707107 -6.34931e-011 0.707107   
     length 1.03679   
     axis -90 45 -9.86935e-015   XYZ
    dof rx rz
    limits (-45.0 45.0)
           (-45.0 45.0)
  end
  begin
     id 24 
     name rclavicle
     direction -0.831414 0.553102 -0.0531864   
     length 4.24872  
     axis 0 -0 0   XYZ 
    dof ry rz
    limits (-10.0 20.0)
           (-20.0 0.0)
  end
  begin
     id 25 
     name rhumerus
     direction -0.999916 -0.000939607 0.0129331  
     length 4.74834   
     axis -180 30 90   XYZ
    dof rx ry rz
    limits (-90.0 60.0)
           (-90.0 90.0)
           (-90.0 90.0)
  end
  begin
     id 26 
     name rradius
     direction -1 -4.48956e-011 -1.31752e-027   
     length 2.79907   
     axis -180 30 90   XYZ
    dof rx
    limits (-10.0 170.0)
  end
  begin
     id 27 
     name rwrist
     direction -1 -4.4897e-011 -7.39254e-028   
     length 1.39954   
     axis 2.56395e-016 -90 -90   XYZ
    dof ry
    limits (-180.0 0.0)
  end
  begin
     id 28
     name rhand
     direction -0.999997 -0.00250697 0.000800838   
     length 0.953304   
     axis 9.43423e-016 -90 -90   XYZ
    dof rx rz
    limits (-90.0 90.0)
           (-45.0 45.0)
  end
  begin
     id 29
     name rfingers
     direction -1 -4.48954e-011 -2.95702e-027   
     length 0.763342   
     axis 1.88685e-015 -90 -90   XYZ
    dof rx
    limits (0.0 90.0)
  end
  begin
     id 30
     name rthumb
     direction -0.709701 -0.00217037 0.7045   
     length 1.10115   
     axis -90 -45 9.86935e-015   XYZ
    dof rx rz
    limits (-45.0 45.0)
           (-45.0 45.0)
  end
:hierarchy
  begin
    root lhipjoint rhipjoint lowerback
    lhipjoint lfemur
    lfemur ltibia
    ltibia lfoot
    lfoot ltoes
    rhipjoint rfemur
    rfemur rtibia
    rtibia rfoot
    rfoot rtoes
    lowerback upperback
    upperback thorax
    thorax lowerneck lclavicle rclavicle
    lowerneck upperneck
    upperneck head
    lclavicle lhumerus
    lhumerus lradius
    lradius lwrist
    lwrist lhand lthumb
    lhand lfingers
    rclavicle rhumerus
    rhumerus rradius
    rradius rwrist
    rwrist rhand rthumb
    rhand rfingers
  end

#!OML:ASF G:\ViconDB\ViconDB\414\test\team2\shane.ASF
:FULLY-SPECIFIED
:DEGREES
47
root 3.28571 16.3994 -31.6486 -2.97562 -12.6942 -5.58052
lowerback 9.19844 1.37823 5.65502
upperback 3.83381 2.30484 0.786487
thorax -0.973207 1.19097 -2.58302
lowerneck -15.0193 -3.03535 -5.84537
upperneck 39.9998 -0.0348865 -6.54192
head 17.2769 -1.88619 -1.96012
rclavicle -4.86277e-014 -1.09332e-014
rhumerus -10.4084 31.2365 -63.2364
rradius 107.321
rwrist 1.45271
rhand -27.5588 -17.9023
rfingers 7.12502
rthumb -0.959825 -47.8799
lclavicle -2.18787e-014 -1.04859e-014
lhumerus -45.3268 -16.2444 95.1727
lradius 24.8146
lwrist -17.9745
lhand -34.3651 5.82032
lfingers 7.12502
lthumb -7.53198 35.6662
rfemur 30.5892 -5.96787 19.8457
rtibia 9.54166e-014
rfoot -19.7371 7.70742
rtoes -16.2534
lfemur -24.768 12.8195 -8.15223
ltibia 36.0325
lfoot -16.0253 -15.5361
ltoes -7.32054
48
root 3.2981 16.3978 -31.5156 -2.93413 -13.1956 -5.32769
lowerback 9.24456 1.4849 5.35031
upperback 3.82606 2.41837 0.501949
thorax -0.998399 1.24625 -2.71949
lowerneck -14.6652 -2.87133 -5.75204
upperneck 41.0354 0.553783 -7.33993
head 17.8099 -1.7703 -2.2972
rclavicle -6.91274e-014 -1.55052e-014
rhumerus -9.24036 32.623 -61.542
rradius 105.967
rwrist -0.115959
rhand -27.0802 -17.8268
rfingers 7.12502
rthumb -0.497579 -47.806
lclavicle -2.18787e-014 -1.04859e-014
lhumerus -45.3268 -16.2444 95.1727
lradius 24.8146
lwrist -17.9745
lhand -34.3651 5.82032
lfingers 7.12502
lthumb -7.53198 35.6662
rfemur 30.888 -5.37009 19.526
rtibia 0
rfoot -19.3417 7.3886
rtoes -17.5718
lfemur -24.4897 11.7251 -8.2907
ltibia 36.3994
lfoot -14.8956 -14.0722
ltoes -6.71867
49
root 3.30689 16.4041 -31.3781 -2.83715 -13.6374 -5.18025
lowerback 9.05673 1.65981 5.08795
upperback 3.93098 2.60852 0.243841
thorax -0.770289 1.34878 -2.84716
lowerneck -14.2467 -2.81419 -5.89123
upperneck 41.6496 0.882617 -7.77415
head 18.0909 -1.7318 -2.4507
rclavicle 2.65874e-014 9.54166e-015
rhumerus -8.37474 33.0029 -60.3911
rradius 104.992
rwrist -1.57868
rhand -25.4178 -17.0718
rfingers 7.12502
rthumb 1.10809 -47.0487
lclavicle -2.18787e-014 -1.04859e-014
lhumerus -45.3268 -16.2444 95.1727
lradius 24.8146
lwrist -17.9745
lhand -34.3651 5.82032
lfingers 7.12502
lthumb -7.53198 35.6662
rfemur 31.1216 -4.83828 19.3085
rtibia 5.40694e-014
rfoot -18.6315 7.20993
rtoes -19.1789
lfemur -24.2197 10.6201 -8.26143
ltibia 36.9065
lfoot -14.7426 -12.2368
ltoes -5.35486
50
root 3.31675 16.4129 -31.2392 -2.74166 -14.0063 -5.13077
lowerback 8.91933 1.78109 5.02739
upperback 4.12525 2.74481 -0.084759
thorax -0.467079 1.43078 -3.15433
lowerneck -14.0554 -2.76546 -5.93224
upperneck 41.9616 1.12792 -8.10826
head 18.2499 -1.69234 -2.57699
rclavicle 3.55825e-014 -3.18055e-015
rhumerus -8.00353 33.2557 -59.266
rradius 104.875
rwrist -3.09698
rhand -23.8061 -16.4786
rfingers 7.12502
rthumb 2.66466 -46.4417
lclavicle -2.18787e-014 -1.04859e-014
lhumerus -45.3268 -16.2444 95.1727
lradius 24.8146
lwrist -17.9745
lhand -34.3651 5.82032
lfingers 7.12502
lthumb -7.53198 35.6662
rfemur 31.3765 -4.36489 19.1385
rtibia -9.54166e-015
rfoot -17.8055 7.30303
rtoes -19.0545
lfemur -23.9347 9.93523 -8.20898
ltibia 37.3931
lfoot -15.2065 -10.8366
ltoes -6.08077
51
root 3.32866 16.3922 -31.1046 -2.70065 -14.3212 -5.06344
lowerback 8.88592 1.9318 4.7907
upperback 4.3364 2.91405 -0.341416
thorax -0.21273 1.52519 -3.29406
lowerneck -13.8136 -2.81031 -6.13001
upperneck 42.0436 1.23506 -8.38716
head 18.2551 -1.71769 -2.65623
rclavicle 1.71949e-014 2.22639e-014
rhumerus -8.01896 32.8277 -58.6538
rradius 104.701
rwrist -3.45533
rhand -22.4819 -14.7556
rfingers 7.12502
rthumb 3.94338 -44.6989
lclavicle -2.18787e-014 -1.04859e-014
lhumerus -45.3268 -16.2444 95.1727
lradius 24.8146
lwrist -17.9745
lhand -34.3651 5.82032
lfingers 7.12502
lthumb -7.53198 35.6662
rfemur 31.7506 -3.92664 18.9124
rtibia 1.59028e-014
rfoot -16.7939 7.51651
rtoes -19.49
lfemur -23.6487 9.25077 -8.23248
ltibia 37.9242
lfoot -15.5037 -9.98863
ltoes -5.3117
52
root 3.33016 16.4108 -30.9606 -2.53185 -14.5652 -5.05548
lowerback 8.5897 2.12796 4.49069
upperback 4.62552 3.12709 -0.57633
thorax 0.266335 1.64684 -3.36322
lowerneck -13.8009 -2.89391 -6.266
upperneck 42.0437 1.25906 -8.60813
head 18.2662 -1.75785 -2.73372
rclavicle 7.45443e-015 1.11319e-014
rhumerus -8.49299 32.0231 -58.2428
rradius 105.258
rwrist -4.09077
rhand -21.8566 -12.9392
rfingers 7.12502
rthumb 4.54725 -42.8704
lclavicle -2.18787e-014 -1.04859e-014
lhumerus -45.3268 -16.2444 95.1727
lradius 24.8146
lwrist -17.9745
lhand -34.3651 5.82032
lfingers 7.12502
lthumb -7.53198 35.6662
rfemur 31.9336 -3.58242 18.7836
rtibia -1.90833e-014
rfoot -15.6725 7.596
rtoes -20.7069
lfemur -23.4311 9.33422 -8.39718
ltibia 38.3071
lfoot -16.2305 -9.81909
ltoes -5.50542
